<svg id="Layer_1" data-name="Layer 1" xmlns="http://www.w3.org/2000/svg" xmlns:xlink="http://www.w3.org/1999/xlink" viewBox="0 0 285.5 231.7"><defs><style>.cls-1{fill:#fff;}.cls-2{fill:#67d4cf;}.cls-3{fill:url(#linear-gradient);}.cls-4,.cls-5{fill:none;stroke:#fff;stroke-miterlimit:10;}.cls-4{stroke-width:5px;}.cls-5{stroke-width:8px;}</style><linearGradient id="linear-gradient" x1="264.04" y1="36.06" x2="182.03" y2="36.6" gradientTransform="matrix(1, -0.01, -0.01, -1, -38.8, 186)" gradientUnits="userSpaceOnUse"><stop offset="0" stop-color="#fff"/><stop offset="1" stop-color="#67d4cf"/></linearGradient></defs><title>Logo</title><g id="Layer_2" data-name="Layer 2"><path class="cls-1" d="M143.4,233.7h-2.1c-2-.9-4-1.7-5.9-2.8-8.5-4.9-16.3-11-23.9-17.2a696.8,696.8,0,0,1-70.4-65.5,305.2,305.2,0,0,1-27.5-33.1c-6-8.6-10.4-17.7-11.8-28.2l-.9-7V71l.2-1.3c.6-3.7.9-7.5,1.8-11.2C11.5,22.1,46.3-3.3,85.4,3,112.2,7.3,131,22.5,142,47.4c.6,1.3,1,2.6,1.6,4.1l.5-1.3A73.4,73.4,0,0,1,222.7,2.7a70.3,70.3,0,0,1,45.8,24.5c13.2,15.3,19.1,33.2,17.8,53.3-.7,10.8-3.6,21-9.7,30.2A210.9,210.9,0,0,1,257.7,135a661.7,661.7,0,0,1-91.5,84.6C159.1,225,151.9,230.5,143.4,233.7Z" transform="translate(-0.9 -2)"/></g><g id="Layer_2-2" data-name="Layer 2"><path class="cls-2" d="M143.5,227.6h-1.9c-1.8-.9-3.7-1.6-5.4-2.6-7.9-4.6-15.1-10.2-22.2-15.9a645.5,645.5,0,0,1-65.2-60.7,282.7,282.7,0,0,1-25.4-30.7c-5.6-7.9-9.7-16.4-11-26.1l-.8-6.5V76.9l.2-1.2c.5-3.5.8-7,1.6-10.4C21.3,31.6,53.6,8.1,89.8,13.9c24.8,4,42.2,18.1,52.5,41.1.5,1.2.9,2.4,1.5,3.8l.5-1.2a68,68,0,0,1,72.7-44,65.2,65.2,0,0,1,42.4,22.7C271.5,50.5,277,67,275.8,85.7a56.2,56.2,0,0,1-9,27.9,195.4,195.4,0,0,1-17.4,22.5,612.9,612.9,0,0,1-84.8,78.3C158.1,219.6,151.4,224.6,143.5,227.6Z" transform="translate(-0.9 -2)"/></g><g id="Layer_1-2" data-name="Layer 1"><path class="cls-3" d="M143,225.4,225,85.1s-39.8-21-75-11.7Z" transform="translate(-0.9 -2)"/><line class="cls-4" x1="141.3" y1="226.7" x2="224.2" y2="83.5"/><path class="cls-1" d="M187.2,85.1a7.2,7.2,0,0,1,2.6-2.6,5.9,5.9,0,0,1,6.3.2c2.1,1.4,2.8,3.4,2.7,5.9a9.8,9.8,0,0,1-3.2,6.7c-2,1.9-4.1,3.7-6.2,5.5l-2.2,2c-2.9-2.9-6.1-5.2-8.9-8.2a9.1,9.1,0,0,1-2.5-8.3,5.9,5.9,0,0,1,9.7-3.3A8.7,8.7,0,0,1,187.2,85.1Z" transform="translate(-0.9 -2)"/><path class="cls-5" d="M112.7,215.1s31.9-24.9,62.9-2.3" transform="translate(-0.9 -2)"/><path class="cls-5" d="M78.5,186c63.7-45.1,131.4-5,131.4-5" transform="translate(-0.9 -2)"/><path class="cls-5" d="M43.7,150.4s106.1-64.8,201.8,0" transform="translate(-0.9 -2)"/></g></svg>